<?xml version="1.0" standalone="no"?>
<!DOCTYPE svg PUBLIC "-//W3C//DTD SVG 20010904//EN"
 "http://www.w3.org/TR/2001/REC-SVG-20010904/DTD/svg10.dtd">
<svg version="1.0" xmlns="http://www.w3.org/2000/svg"
 width="700.000000pt" height="700.000000pt" viewBox="0 0 700.000000 700.000000"
 preserveAspectRatio="xMidYMid meet">
<metadata>
Created by potrace 1.14, written by Peter Selinger 2001-2017
</metadata>
<g transform="translate(0.000000,700.000000) scale(0.100000,-0.100000)"
fill="#000000" stroke="none">
<path d="M3120 6485 c-150 -18 -340 -55 -340 -67 0 -5 -10 -7 -22 -4 -13 3
-17 3 -10 0 8 -4 -1 -20 -28 -51 -39 -45 -100 -154 -100 -179 0 -8 17 -22 39
-33 53 -28 117 -103 136 -162 l17 -49 101 0 c168 0 599 -40 702 -66 16 -4 25
5 44 41 53 101 165 160 286 153 81 -6 140 -31 200 -88 l40 -38 100 39 c197 78
411 127 572 132 46 1 83 3 83 4 0 6 -246 126 -327 159 -253 105 -527 176 -809
209 -157 18 -533 18 -684 0z"/>
<path d="M2475 6336 c-428 -153 -802 -385 -1110 -691 -61 -60 -84 -85 -51 -53
34 31 84 67 111 81 149 73 416 158 615 196 137 26 160 35 160 59 0 39 33 113
70 154 48 55 124 97 190 105 l51 6 35 75 c19 42 42 84 51 94 22 25 15 23 -122
-26z"/>
<path d="M6059 6367 c-91 -34 -155 -93 -195 -180 -71 -157 -2 -348 154 -424
50 -25 69 -28 150 -28 l92 0 39 -90 c113 -262 160 -527 147 -830 -8 -193 -52
-492 -77 -519 -5 -6 -9 -20 -9 -32 0 -34 -65 -243 -117 -373 -143 -363 -356
-725 -629 -1066 -148 -185 -497 -540 -674 -686 -582 -481 -1188 -797 -1839
-959 -149 -37 -380 -78 -497 -86 l-84 -7 0 -93 0 -94 63 6 c344 29 611 85 934
195 539 183 1071 488 1558 894 156 129 506 478 627 625 183 221 321 418 457
647 75 128 211 403 252 510 13 34 27 59 31 57 4 -3 8 4 8 16 0 11 18 75 41
143 167 505 200 1006 93 1432 -30 117 -83 263 -130 357 l-33 66 32 63 c28 55
32 71 32 143 -1 98 -25 159 -88 224 -65 67 -127 95 -222 99 -51 2 -93 -2 -116
-10z"/>
<path d="M4970 6096 c0 -3 9 -10 20 -16 11 -6 20 -8 20 -6 0 3 -9 10 -20 16
-11 6 -20 8 -20 6z"/>
<path d="M5020 6066 c0 -3 9 -10 20 -16 11 -6 20 -8 20 -6 0 3 -9 10 -20 16
-11 6 -20 8 -20 6z"/>
<path d="M4749 6005 c-145 -24 -354 -84 -483 -140 -37 -16 -38 -18 -32 -53 3
-20 6 -47 6 -58 0 -18 17 -27 108 -59 301 -106 578 -245 835 -417 372 -249
718 -593 952 -945 26 -40 51 -73 56 -73 7 0 30 91 63 255 l14 70 -40 94 c-177
419 -463 809 -807 1101 -118 99 -283 222 -290 215 -2 -3 -10 3 -18 13 -8 9
-11 11 -7 3 5 -11 1 -13 -22 -7 -65 14 -251 15 -335 1z"/>
<path d="M2803 5798 c-27 -97 -104 -177 -203 -211 l-45 -15 3 -59 c4 -65 49
-393 58 -416 3 -9 24 -16 59 -19 29 -3 75 -16 102 -29 l48 -25 90 79 c183 162
412 338 617 475 103 69 107 73 98 98 -6 14 -10 40 -10 59 0 41 6 39 -190 64
-193 25 -395 41 -520 41 l-96 0 -11 -42z"/>
<path d="M2055 5770 c-325 -67 -591 -168 -803 -306 -87 -57 -98 -62 -86 -41 4
6 -2 3 -14 -7 -26 -23 -29 -34 -4 -16 9 7 1 -2 -19 -21 -38 -36 -97 -111 -169
-218 -41 -61 -43 -68 -41 -130 10 -388 140 -780 391 -1181 85 -135 104 -160
120 -154 92 33 172 37 237 13 21 -8 29 1 84 83 138 205 373 504 554 703 l82
90 -26 50 c-40 75 -42 184 -6 262 30 67 74 117 128 145 31 15 38 24 34 41 -13
50 -37 209 -47 307 -22 204 -15 184 -63 198 -64 19 -133 75 -166 134 -17 29
-34 58 -38 65 -6 8 -44 4 -148 -17z"/>
<path d="M4182 5585 c-105 -149 -301 -177 -450 -65 l-50 38 -118 -81 c-218
-148 -664 -502 -664 -527 0 -4 10 -29 22 -56 16 -35 22 -69 22 -120 0 -60 -4
-81 -32 -137 -20 -40 -48 -78 -69 -95 -80 -62 -78 -37 -14 -227 188 -554 481
-1168 801 -1675 74 -119 289 -430 297 -430 2 0 32 9 66 21 185 63 377 -54 406
-248 l6 -44 120 85 c728 518 1291 1218 1582 1966 37 95 43 120 35 142 -5 14
-44 78 -86 141 -346 517 -869 952 -1464 1216 -104 47 -353 141 -370 141 -5 0
-22 -20 -40 -45z"/>
<path d="M1204 5478 l-29 -33 33 29 c17 17 32 31 32 33 0 8 -8 1 -36 -29z"/>
<path d="M890 5050 c-6 -11 -8 -20 -6 -20 3 0 10 9 16 20 6 11 8 20 6 20 -3 0
-10 -9 -16 -20z"/>
<path d="M860 5000 c-6 -11 -8 -20 -6 -20 3 0 10 9 16 20 6 11 8 20 6 20 -3 0
-10 -9 -16 -20z"/>
<path d="M783 4855 c-471 -928 -422 -2053 130 -2940 88 -143 82 -143 84 8 4
318 106 682 310 1109 l66 137 -37 42 c-65 77 -92 195 -66 289 5 20 23 56 39
81 l29 46 -82 125 c-238 364 -379 726 -420 1078 l-12 105 -41 -80z"/>
<path d="M2348 4393 c-195 -222 -402 -487 -522 -669 l-48 -72 35 -48 c49 -71
62 -110 62 -189 0 -55 -6 -83 -29 -132 l-28 -62 84 -80 c432 -409 973 -748
1533 -961 102 -39 348 -120 362 -120 4 0 18 18 31 41 l23 40 -69 97 c-448 628
-840 1402 -1073 2118 l-32 102 -60 6 c-32 3 -79 15 -104 26 -25 11 -49 20 -53
20 -5 0 -55 -53 -112 -117z"/>
<path d="M6453 3760 c0 -25 2 -35 4 -22 2 12 2 32 0 45 -2 12 -4 2 -4 -23z"/>
<path d="M6463 3630 c0 -25 2 -35 4 -22 2 12 2 32 0 45 -2 12 -4 2 -4 -23z"/>
<path d="M6463 3410 c0 -47 2 -66 4 -42 2 23 2 61 0 85 -2 23 -4 4 -4 -43z"/>
<path d="M6409 3380 c-9 -14 -42 -72 -73 -129 -209 -379 -459 -704 -822 -1068
-128 -128 -227 -233 -220 -233 6 0 52 9 101 20 217 48 473 155 629 263 43 30
118 90 167 133 l88 79 45 136 c47 145 86 307 110 459 19 119 29 255 17 220 -8
-22 -9 -19 -11 20 0 25 -4 63 -8 85 l-8 40 -15 -25z"/>
<path d="M1675 3128 c-41 -16 -65 -19 -134 -15 l-83 5 -63 -132 c-229 -477
-339 -935 -295 -1235 11 -75 30 -99 151 -186 278 -200 674 -315 1086 -315 468
0 975 123 1472 357 63 29 116 55 118 57 3 2 -18 26 -44 52 -57 57 -79 99 -96
184 l-12 62 -135 42 c-648 204 -1267 566 -1780 1040 -63 58 -119 106 -125 105
-5 -1 -32 -10 -60 -21z"/>
<path d="M6246 2385 c-9 -26 -7 -32 5 -12 6 10 9 21 6 23 -2 3 -7 -2 -11 -11z"/>
<path d="M6216 2315 c-9 -26 -7 -32 5 -12 6 10 9 21 6 23 -2 3 -7 -2 -11 -11z"/>
<path d="M6185 2241 c-9 -29 -210 -161 -335 -220 -184 -86 -386 -146 -608
-180 -114 -17 -123 -20 -169 -58 -84 -69 -245 -187 -350 -258 -57 -37 -103
-71 -103 -74 0 -9 123 -101 215 -160 136 -89 279 -148 400 -166 l50 -7 -27
-19 c-15 -11 -37 -29 -50 -40 -46 -41 45 24 144 103 268 214 515 499 697 806
71 120 154 282 148 289 -3 2 -8 -5 -12 -16z"/>
<path d="M1168 1563 c22 -27 50 -57 63 -68 13 -11 -3 10 -36 48 -67 76 -87 91
-27 20z"/>
<path d="M1305 1411 c33 -34 96 -95 140 -134 95 -84 62 -50 -90 94 -60 57 -83
75 -50 40z"/>
<path d="M4440 1348 c-36 -23 -137 -78 -225 -124 -584 -303 -1178 -471 -1738
-491 -192 -7 -193 -3 8 -72 325 -113 625 -163 975 -163 379 0 708 58 1060 189
191 71 417 184 579 291 l84 55 -83 24 c-156 45 -259 101 -457 249 -61 46 -117
84 -125 83 -7 0 -42 -19 -78 -41z"/>
<path d="M1550 1186 c0 -2 8 -10 18 -17 15 -13 16 -12 3 4 -13 16 -21 21 -21
13z"/>
<path d="M1600 1146 c0 -2 8 -10 18 -17 15 -13 16 -12 3 4 -13 16 -21 21 -21
13z"/>
<path d="M1920 926 c0 -3 9 -10 20 -16 11 -6 20 -8 20 -6 0 3 -9 10 -20 16
-11 6 -20 8 -20 6z"/>
<path d="M1970 896 c0 -3 14 -12 30 -21 17 -9 30 -13 30 -11 0 3 -13 12 -30
21 -16 9 -30 13 -30 11z"/>
<path d="M2240 755 c14 -8 30 -14 35 -14 6 0 -1 6 -15 14 -14 8 -29 14 -35 14
-5 0 1 -6 15 -14z"/>
</g>
</svg>
